<svg width="28" height="30" viewBox="0 0 28 30" fill="none" xmlns="http://www.w3.org/2000/svg">
<g id="google" clip-path="url(#clip0_471_7557)">
<path id="Path 168" d="M28 15.3167C28.0169 14.3346 27.9155 13.3541 27.6981 12.3962H14.2857V17.6977H22.1586C22.0095 18.6272 21.6739 19.517 21.172 20.3135C20.6701 21.11 20.0123 21.7968 19.2381 22.3325L19.2106 22.5101L23.4516 25.7954L23.7453 25.8247C26.4435 23.3326 27.9994 19.6658 27.9994 15.3167" fill="#4285F4"/>
<path id="Path 169" d="M14.2857 29.2857C18.1427 29.2857 21.3808 28.0158 23.7461 25.8253L19.2381 22.3331C18.0318 23.1746 16.4128 23.7619 14.2857 23.7619C12.4792 23.7513 10.7219 23.1722 9.2631 22.1066C7.80431 21.041 6.71812 19.543 6.15863 17.8253L5.99121 17.8396L1.58144 21.2522L1.5238 21.4125C2.71146 23.7795 4.53413 25.7695 6.78798 27.1599C9.04184 28.5503 11.638 29.2863 14.2863 29.2857" fill="#34A853"/>
<path id="Path 170" d="M6.15865 17.8253C5.84618 16.9159 5.68494 15.9615 5.68136 15C5.68711 14.04 5.8424 13.0868 6.14163 12.1747L6.13367 11.9853L1.66983 8.51776L1.52382 8.5872C0.521929 10.5764 6.10352e-05 12.7726 6.10352e-05 14.9999C6.10352e-05 17.2271 0.521929 19.4233 1.52382 21.4125L6.15865 17.8253Z" fill="#FBBC05"/>
<path id="Path 171" d="M14.2857 6.23812C16.3327 6.20634 18.3125 6.96869 19.8095 8.3652L23.8414 4.4286C21.2555 2.00272 17.8311 0.671671 14.2857 0.714312C11.6375 0.713682 9.04134 1.4497 6.78748 2.84006C4.53363 4.23042 2.71095 6.22031 1.52325 8.58724L6.14271 12.1747C6.70771 10.4573 7.7975 8.96052 9.25844 7.89543C10.7194 6.83034 12.4778 6.25066 14.2857 6.23812Z" fill="#EB4335"/>
</g>
<defs>
<clipPath id="clip0_471_7557">
<rect width="28" height="28.5714" fill="white" transform="translate(0 0.714294)"/>
</clipPath>
</defs>
</svg>
